HIERARCHY
ROOT Hips
{
	OFFSET -0.001795 -0.223333 0.028219
	CHANNELS 6 Xposition Yposition Zposition Zrotation Yrotation Xrotation 
	JOINT LeftUpLeg
	{
		OFFSET 0.069520 -0.091406 -0.006815
		CHANNELS 3 Zrotation Yrotation Xrotation
		JOINT LeftLeg
		{
			OFFSET 0.034277 -0.375199 -0.004496
			CHANNELS 3 Zrotation Yrotation Xrotation
			JOINT LeftFoot
			{
				OFFSET -0.013596 -0.397961 -0.043693
				CHANNELS 3 Zrotation Yrotation Xrotation
				JOINT LeftToe
				{
					OFFSET 0.026358 -0.055791 0.119288
					CHANNELS 3 Zrotation Yrotation Xrotation
					End Site
					{
						OFFSET 0.000000 0.000000 0.000000
					}
				}
			}
		}
	}
	JOINT RightUpLeg
	{
		OFFSET -0.067670 -0.090522 -0.004320
		CHANNELS 3 Zrotation Yrotation Xrotation
		JOINT RightLeg
		{
			OFFSET -0.038290 -0.382569 -0.008850
			CHANNELS 3 Zrotation Yrotation Xrotation
			JOINT RightFoot
			{
				OFFSET 0.015774 -0.398415 -0.042312
				CHANNELS 3 Zrotation Yrotation Xrotation
				JOINT RightToe
				{
					OFFSET -0.025372 -0.048144 0.123348
					CHANNELS 3 Zrotation Yrotation Xrotation
					End Site
					{
						OFFSET 0.000000 0.000000 0.000000
					}
				}
			}
		}
	}
	JOINT Spine
	{
		OFFSET -0.002533 0.108963 -0.026696
		CHANNELS 3 Zrotation Yrotation Xrotation
		JOINT Spine1
		{
			OFFSET 0.005487 0.135180 0.001092
			CHANNELS 3 Zrotation Yrotation Xrotation
			JOINT Spine2
			{
				OFFSET 0.001457 0.052922 0.025425
				CHANNELS 3 Zrotation Yrotation Xrotation
				JOINT Neck
				{
					OFFSET -0.002778 0.213870 -0.042857
					CHANNELS 3 Zrotation Yrotation Xrotation
					JOINT Head
					{
						OFFSET 0.005152 0.064970 0.051349
						CHANNELS 3 Zrotation Yrotation Xrotation
						End Site
						{
							OFFSET 0.000000 0.000000 0.000000
						}
					}
				}
				JOINT LeftShoulder
				{
					OFFSET 0.078845 0.121749 -0.034090
					CHANNELS 3 Zrotation Yrotation Xrotation
					JOINT LeftArm
					{
						OFFSET 0.090977 0.030469 -0.008868
						CHANNELS 3 Zrotation Yrotation Xrotation
						JOINT LeftForeArm
						{
							OFFSET 0.259612 -0.012772 -0.027456
							CHANNELS 3 Zrotation Yrotation Xrotation
							JOINT LeftHand
							{
								OFFSET 0.249234 0.008986 -0.001171
								CHANNELS 3 Zrotation Yrotation Xrotation
								End Site
								{
									OFFSET 0.000000 0.000000 0.000000
								}
							}
						}
					}
				}
				JOINT RightShoulder
				{
					OFFSET -0.081759 0.118833 -0.038615
					CHANNELS 3 Zrotation Yrotation Xrotation
					JOINT RightArm
					{
						OFFSET -0.096012 0.032551 -0.009143
						CHANNELS 3 Zrotation Yrotation Xrotation
						JOINT RightForeArm
						{
							OFFSET -0.253742 -0.013329 -0.021401
							CHANNELS 3 Zrotation Yrotation Xrotation
							JOINT RightHand
							{
								OFFSET -0.255298 0.007772 -0.005559
								CHANNELS 3 Zrotation Yrotation Xrotation
								End Site
								{
									OFFSET 0.000000 0.000000 0.000000
								}
							}
						}
					}
				}
			}
		}
	}
}
MOTION
Frames: 10
Frame Time: 0.050000
0.000000 0.826185 0.000000 3.120427 1.154230 6.871197 5.078605 -2.940229 -51.842977 -8.296676 4.571214 77.681332 9.487058 19.614217 1.282961 0.000000 0.000000 0.000000 -2.249141 -0.156678 3.011173 2.597167 0.155651 38.110384 -6.226095 -11.855130 -19.880828 0.000000 0.000000 0.000000 -5.973443 0.384889 19.074534 6.073147 -1.059661 -20.131131 5.829941 13.494560 28.566225 -0.998748 4.724063 -35.497157 0.000000 0.000000 0.000000 -28.642555 8.160348 -12.983550 -36.683565 17.037169 -9.243921 -58.297131 -46.580163 26.761039 0.000000 0.000000 0.000000 17.672965 9.533394 7.622300 40.548408 26.144552 1.702236 -13.472639 64.229486 -1.453189 0.000000 0.000000 0.000000 
0.000000 0.842935 0.000000 5.742229 1.674111 7.457135 5.959439 -3.026054 -57.251444 -12.348405 5.902261 55.558325 8.572574 18.058032 1.190352 0.000000 0.000000 0.000000 -4.782727 -0.905046 17.413362 0.994876 0.469417 22.200211 -3.411203 -6.668986 -6.223515 0.000000 0.000000 0.000000 -9.813524 0.985989 14.985611 4.408162 -0.690464 -18.649278 8.124146 18.342558 27.550988 -1.176069 5.514919 -32.045277 0.000000 0.000000 0.000000 -24.390760 11.624865 -15.124244 -31.543794 24.270905 -9.334310 -65.386404 -41.934238 25.691991 0.000000 0.000000 0.000000 12.950044 6.825187 5.969684 45.254075 27.387640 3.828140 -26.150390 78.705755 -9.277776 0.000000 0.000000 0.000000 
0.000000 0.856364 0.000000 7.000279 3.849125 9.069096 4.723320 -3.931207 -52.969712 -13.120442 4.336472 38.570816 6.818860 15.279796 4.093551 0.000000 0.000000 0.000000 -3.628118 -1.691563 22.507192 -2.672158 1.401032 20.450541 2.222962 -1.431316 15.373837 0.000000 0.000000 0.000000 -12.863300 1.256533 11.981891 2.254194 0.017322 -19.551346 11.025056 18.440327 26.020875 -0.762105 5.420800 -31.456612 0.000000 0.000000 0.000000 -21.488727 13.492901 -15.117189 -31.173078 29.218683 -10.631844 -66.659330 -43.166729 26.760582 0.000000 0.000000 0.000000 11.524400 4.237899 4.520117 48.869426 21.393216 2.334534 103.390675 86.302422 116.299288 0.000000 0.000000 0.000000 
0.000000 0.852872 0.000000 6.730119 5.905482 8.205640 -0.184314 -5.644262 -46.327718 -11.406818 3.165914 39.725603 7.171581 14.581580 -4.520925 0.000000 0.000000 0.000000 -3.818954 -1.749943 21.900106 0.214377 0.532682 33.145483 -0.219095 -7.515452 22.995618 0.000000 0.000000 0.000000 -14.836175 1.274599 10.770894 4.162815 -0.539659 -18.538704 9.203484 17.058380 25.963542 0.322296 4.970221 -32.988399 0.000000 0.000000 0.000000 -21.892697 13.653181 -15.350324 -38.104014 27.292829 -12.855416 -60.097329 -46.467996 25.803224 0.000000 0.000000 0.000000 10.271549 4.481026 4.335506 53.221299 19.181702 2.163059 83.429297 81.029550 90.937055 0.000000 0.000000 0.000000 
0.000000 0.838682 0.000000 6.771765 5.948158 7.273575 -2.913147 -5.302331 -38.265886 -9.192660 2.110377 45.875762 9.760589 19.224223 -17.692297 0.000000 0.000000 0.000000 -7.164373 -0.494039 13.705503 5.209063 -2.894494 52.508623 -4.137713 -12.654293 13.346859 0.000000 0.000000 0.000000 -16.002023 1.530464 12.733077 4.932321 -0.770577 -18.471040 6.530143 14.419922 26.276805 1.834682 4.023329 -37.593322 0.000000 0.000000 0.000000 -25.985350 9.311085 -14.131929 -43.883932 16.466070 -10.882788 -45.161532 -54.212648 23.009013 0.000000 0.000000 0.000000 10.894014 3.762206 3.772838 56.144361 17.857526 1.718730 47.654629 75.495278 50.606888 0.000000 0.000000 0.000000 
0.000000 0.828665 0.000000 5.279522 4.777501 7.679452 -5.165145 -3.963369 -27.621345 -2.589991 -1.283931 44.752177 10.286764 19.539716 -30.947431 0.000000 0.000000 0.000000 -8.273844 0.275175 -1.219392 8.880268 -7.149478 70.050345 -7.455883 -18.676316 10.718829 0.000000 0.000000 0.000000 -13.389911 1.273543 12.713661 4.601091 -0.775672 -17.261217 2.984182 8.247060 26.127621 1.332710 3.256162 -39.018275 0.000000 0.000000 0.000000 -24.518590 8.324146 -10.517494 -48.000862 4.034926 -8.175878 -28.182457 -60.183042 17.456690 0.000000 0.000000 0.000000 12.381610 7.368076 4.847743 55.930809 17.907670 1.102176 21.518891 71.399072 24.198466 0.000000 0.000000 0.000000 
0.000000 0.842173 0.000000 2.714475 2.404988 7.291489 -4.980615 -2.215143 -17.197821 -0.209208 -1.951779 42.673791 11.310152 24.906967 -26.793844 0.000000 0.000000 0.000000 -6.133719 0.782867 -12.841169 11.284076 -8.847454 76.415302 -10.023836 -23.572691 7.969560 0.000000 0.000000 0.000000 -9.178594 0.745400 12.089116 5.699623 -0.873177 -20.935071 0.858662 6.703744 29.500211 2.140019 2.467555 -38.045309 0.000000 0.000000 0.000000 -22.696065 6.696114 -7.896431 -46.240512 -4.546177 -5.503856 -18.744636 -63.199077 13.651205 0.000000 0.000000 0.000000 14.304880 8.160402 5.118096 51.728957 17.041635 -0.439638 19.953810 70.678389 21.852383 0.000000 0.000000 0.000000 
0.000000 0.873852 0.000000 0.068223 -2.023005 4.217946 -2.468760 -1.492287 -13.840080 -1.767429 -0.249750 47.621951 12.074300 25.395660 -7.497665 0.000000 0.000000 0.000000 -4.137437 0.938744 -12.008163 11.771204 -5.757462 68.449923 -10.424442 -25.103126 1.344012 0.000000 0.000000 0.000000 -4.990489 0.179412 11.625158 6.263197 -1.001283 -22.694228 0.632269 7.915395 30.792818 -0.046977 2.990819 -29.807470 0.000000 0.000000 0.000000 -19.592963 7.741130 -7.093535 -45.122286 -2.480524 -6.490612 -23.639544 -64.960418 17.755386 0.000000 0.000000 0.000000 11.888928 10.972086 5.775122 50.978979 19.037335 0.378989 14.280360 68.234862 16.178728 0.000000 0.000000 0.000000 
0.000000 0.901702 0.000000 -0.539826 -4.407509 3.016383 0.015866 -1.979493 -23.710011 -4.371907 2.200119 54.914348 9.285900 19.005462 -4.240128 0.000000 0.000000 0.000000 -2.760549 0.559255 -5.958004 8.588409 -1.775374 55.448418 -10.143810 -24.754632 -3.604865 0.000000 0.000000 0.000000 -4.541143 0.116767 9.303296 6.932741 -1.614235 -18.453311 2.083627 12.136928 27.076481 -0.133479 3.304696 -25.269835 0.000000 0.000000 0.000000 -17.324791 8.659893 -7.703319 -42.557988 1.108195 -6.831220 -34.358887 -60.521314 21.616968 0.000000 0.000000 0.000000 8.689455 11.973609 5.969120 49.622776 20.337353 1.503753 10.771344 65.680711 13.240344 0.000000 0.000000 0.000000 
0.000000 0.912023 0.000000 0.549094 -5.552425 -0.101549 2.377444 -1.710138 -29.425178 -9.847024 5.316058 47.327143 10.283026 21.538120 -13.072312 0.000000 0.000000 0.000000 -2.546892 0.286176 -2.648318 5.072154 0.854313 53.159259 -8.506668 -20.300184 -6.996032 0.000000 0.000000 0.000000 -7.485596 0.414938 10.622482 6.803961 -1.572369 -19.266566 4.695529 14.384105 28.933586 -2.009335 4.661348 -23.319131 0.000000 0.000000 0.000000 -19.833447 8.850350 -8.892316 -38.451419 2.176519 -6.304059 -41.136921 -65.044478 27.675855 0.000000 0.000000 0.000000 9.830973 9.953084 5.440541 49.299346 18.459252 0.372778 13.058858 66.806930 15.757524 0.000000 0.000000 0.000000 
